<svg width="24" height="24" viewBox="0 0 24 24" fill="none" xmlns="http://www.w3.org/2000/svg">
<g clip-path="url(#clip0_2_37)">
<path d="M19.5 13.572L12 21L4.5 13.572C4.0053 13.0906 3.61564 12.512 3.35554 11.8726C3.09545 11.2333 2.97056 10.5469 2.98873 9.85693C3.00691 9.16691 3.16776 8.48813 3.46115 7.86333C3.75455 7.23853 4.17413 6.68125 4.69348 6.22657C5.21283 5.7719 5.8207 5.42968 6.47881 5.22147C7.13691 5.01327 7.831 4.94358 8.51736 5.0168C9.20373 5.09001 9.8675 5.30455 10.4669 5.6469C11.0662 5.98925 11.5882 6.45199 12 7.00599C12.4135 6.45602 12.9361 5.99731 13.5351 5.6586C14.1341 5.31988 14.7965 5.10844 15.4809 5.03751C16.1654 4.96658 16.8571 5.03769 17.5128 5.24639C18.1685 5.45508 18.774 5.79687 19.2915 6.25036C19.8091 6.70385 20.2274 7.25928 20.5204 7.88189C20.8134 8.50449 20.9747 9.18088 20.9943 9.8687C21.0139 10.5565 20.8913 11.241 20.6341 11.8792C20.377 12.5175 19.9909 13.0958 19.5 13.578" stroke="#E33434" stroke-width="2" stroke-linecap="round" stroke-linejoin="round"/>
</g>
<defs>
<clipPath id="clip0_2_37">
<rect width="24" height="24" fill="white"/>
</clipPath>
</defs>
</svg>
